<?xml version="1.0" standalone="no"?>
<!DOCTYPE svg PUBLIC "-//W3C//DTD SVG 20010904//EN"
 "http://www.w3.org/TR/2001/REC-SVG-20010904/DTD/svg10.dtd">
<svg version="1.0" xmlns="http://www.w3.org/2000/svg"
 width="100.000000pt" height="100.000000pt" viewBox="0 0 100.000000 100.000000"
 preserveAspectRatio="xMidYMid meet">
<metadata>
Created by potrace 1.11, written by Peter Selinger 2001-2013
</metadata>
<g transform="translate(0.000000,100.000000) scale(0.100000,-0.100000)"
fill="#000000" stroke="none">
<path d="M733 945 c-18 -7 -45 -31 -60 -53 -26 -35 -50 -48 -316 -162 -159
-69 -297 -130 -305 -136 -15 -11 -15 -18 -4 -59 25 -95 21 -95 172 -5 74 44
135 80 137 80 1 0 19 12 40 26 35 23 38 24 50 8 12 -16 -4 -28 -155 -117 -92
-54 -173 -105 -181 -112 -12 -12 -10 -21 10 -61 13 -27 41 -61 62 -78 l38 -30
158 158 c130 130 160 155 169 143 10 -12 -12 -39 -120 -150 -190 -193 -173
-170 -152 -203 24 -36 92 -84 118 -84 16 0 43 36 119 163 53 89 101 168 106
176 8 12 12 12 25 2 13 -11 2 -34 -85 -176 -54 -90 -102 -170 -104 -177 -7
-18 56 -50 102 -52 l37 -1 130 300 c120 277 133 302 170 330 151 113 12 345
-161 270z m-69 -134 c9 -13 -64 -53 -83 -46 -12 5 -4 13 29 30 54 29 48 27 54
16z m51 -51 c3 -5 -7 -24 -23 -41 -28 -30 -30 -31 -50 -13 l-21 18 32 22 c35
25 53 29 62 14z m-199 -51 c-41 -26 -49 -28 -61 -15 -22 21 -19 25 27 46 32
14 47 16 61 8 18 -9 16 -13 -27 -39z m254 -1 c0 -7 -11 -30 -23 -50 -23 -37
-23 -37 -41 -17 -17 20 -16 22 11 50 29 30 53 38 53 17z m-159 -27 l23 -18
-38 -38 -38 -38 -22 24 c-32 34 -31 38 6 65 40 28 40 28 69 5z m187 -66 c-12
-24 -25 -42 -30 -39 -13 8 -10 24 13 60 29 48 43 32 17 -21z m-116 -2 c23 -21
23 -26 -8 -75 l-26 -41 -30 32 -30 33 33 33 c41 40 38 39 61 18z m62 -122 c-9
-20 -18 -41 -21 -48 -3 -8 -11 -6 -25 7 l-21 19 29 45 c25 40 30 44 41 30 10
-13 9 -24 -3 -53z"/>
</g>
</svg>
